<svg xmlns="http://www.w3.org/2000/svg" viewBox="0 0 512 512" width="512" height="512">
  <rect width="512" height="512" fill="#0A0A0A"/>
  <!-- Left eye -->
  <path d="M160 100 C130 120, 110 170, 130 210 C150 250, 190 240, 210 200 C230 160, 200 110, 175 100 C168 97, 163 98, 160 100Z" fill="white"/>
  <!-- Right eye -->
  <path d="M352 100 C382 120, 402 170, 382 210 C362 250, 322 240, 302 200 C282 160, 312 110, 337 100 C344 97, 349 98, 352 100Z" fill="white"/>
  <!-- Nose -->
  <path d="M245 255 C240 248, 242 238, 256 235 C270 238, 272 248, 267 255 C262 262, 250 262, 245 255Z" fill="white"/>
  <!-- Mouth -->
  <path d="M256 290 C230 295, 218 320, 222 360 C226 400, 240 440, 256 460 C272 440, 286 400, 290 360 C294 320, 282 295, 256 290Z" fill="white"/>
</svg>
